<svg xmlns="http://www.w3.org/2000/svg" viewBox="0 0 500 500"><g id="freepik--background-complete--inject-84"><path d="M427.18,245.65s-8.13-.59-7.38,17.64,2.61,27.93,2.61,27.93-.24,4-3.37,3.25-9-4.73-11.92-1.79-1.95,7.72,2.05,13.23,12.32,17.9,13.07,19,1,3.17-1.19,3-17.19-5.27-19.17,2,11.68,20.76,13.14,22.27,1.55,2.45,1,3.36-5.46-1.27-9.78-2.54-9.55-2-10.34,2.3,5.22,16.8,27.76,30l10.84,5.41,10.27-6.55c21.1-15.34,25.84-28.4,24.62-32.58s-6.35-2.94-10.52-1.25-8.79,4.35-9.48,3.51-.7-1.81.61-3.45,13.55-16.46,10.85-23.47-17.08-.47-19.27-.05-2.1-1.67-1.48-2.84,7.67-14.35,11.1-20.23,4-10.64.72-13.37-8.65,1.87-11.68,3-3.68-2.89-3.68-2.89.88-9.85-.2-28.05-9.3-16.74-9.3-16.74" style="fill:#ebebeb"></path><path d="M427.82,262s0,.13,0,.38.05.64.09,1.12c.07,1,.16,2.45.29,4.3.25,3.74.57,9.15.94,15.84.74,13.37,1.61,31.86,2.5,52.27s1.72,38.91,2.38,52.29c.34,6.67.62,12.08.81,15.84.09,1.86.16,3.3.21,4.31,0,.48,0,.85.05,1.12a3.64,3.64,0,0,1,0,.38s0-.13,0-.38,0-.64-.09-1.12c-.07-1-.17-2.45-.29-4.3-.25-3.74-.57-9.15-.94-15.84-.74-13.37-1.61-31.86-2.5-52.28s-1.72-38.9-2.39-52.28c-.33-6.67-.61-12.08-.8-15.84-.09-1.85-.17-3.3-.21-4.31,0-.47,0-.85-.05-1.12A3.64,3.64,0,0,1,427.82,262Z" style="fill:#e0e0e0"></path><path d="M415.13,298.51a3.47,3.47,0,0,1,.67.56c.42.38,1,.95,1.72,1.66,1.44,1.41,3.36,3.42,5.44,5.68l5.3,5.8,1.62,1.75a3.88,3.88,0,0,1,.56.67,3.31,3.31,0,0,1-.68-.55c-.41-.38-1-.95-1.71-1.66-1.42-1.44-3.31-3.47-5.39-5.73l-5.35-5.76-1.62-1.74A3.67,3.67,0,0,1,415.13,298.51Z" style="fill:#e0e0e0"></path><path d="M431.52,314.28c-.08-.08,3.88-4.24,8.85-9.28s9.07-9.06,9.16-9-3.89,4.23-8.86,9.27S431.6,314.36,431.52,314.28Z" style="fill:#e0e0e0"></path><path d="M431.47,345.7a3.46,3.46,0,0,1,.76-.48l2.12-1.2c1.79-1,4.26-2.4,6.92-4s5-3.19,6.75-4.33l2-1.35a3.72,3.72,0,0,1,.77-.46,3.58,3.58,0,0,1-.68.59c-.45.35-1.11.86-1.95,1.46-1.66,1.2-4,2.81-6.69,4.45s-5.17,3-7,3.94c-.92.47-1.66.84-2.19,1.08A4.11,4.11,0,0,1,431.47,345.7Z" style="fill:#e0e0e0"></path><path d="M413.51,334.7a3.28,3.28,0,0,1,.75.35c.47.25,1.14.63,2,1.09,1.65.94,3.91,2.26,6.4,3.74s4.73,2.84,6.35,3.85l1.9,1.2a3.48,3.48,0,0,1,.66.49,3,3,0,0,1-.75-.35c-.47-.25-1.14-.62-2-1.09-1.65-.94-3.92-2.26-6.41-3.74s-4.73-2.84-6.34-3.84c-.81-.5-1.46-.92-1.9-1.21A3.75,3.75,0,0,1,413.51,334.7Z" style="fill:#e0e0e0"></path><path d="M410,362.43a5.84,5.84,0,0,1,.95.46l2.53,1.4c2.12,1.19,5,2.86,8.24,4.72s6.11,3.58,8.19,4.84l2.46,1.5a5.37,5.37,0,0,1,.87.61,6.42,6.42,0,0,1-1-.47l-2.52-1.39c-2.12-1.19-5-2.86-8.25-4.73s-6.1-3.57-8.18-4.83L410.82,363A4.56,4.56,0,0,1,410,362.43Z" style="fill:#e0e0e0"></path><path d="M432.72,375.48a6.36,6.36,0,0,1,.95-.64l2.63-1.6c2.23-1.36,5.29-3.24,8.62-5.41s6.3-4.2,8.43-5.69l2.54-1.76a5.53,5.53,0,0,1,1-.61,8.28,8.28,0,0,1-.87.74c-.57.45-1.41,1.09-2.46,1.87-2.09,1.55-5,3.63-8.37,5.8s-6.43,4-8.7,5.31c-1.13.65-2.06,1.16-2.7,1.49A7,7,0,0,1,432.72,375.48Z" style="fill:#e0e0e0"></path><polygon points="449.02 394.19 419.02 394.19 428.81 468.3 439.23 468.3 449.02 394.19" style="fill:#e0e0e0"></polygon><path d="M420.58,403.3s0,.1.16.26a1.93,1.93,0,0,0,.72.52,3.65,3.65,0,0,0,3.17-.39c1.21-.67,2.27-2,3.89-2.56a8.58,8.58,0,0,1,5.52.11,23.73,23.73,0,0,1,5.13,2.49,36.86,36.86,0,0,0,4.18,2.24,11.88,11.88,0,0,0,3.08.89,6.6,6.6,0,0,0,.87.06c.2,0,.31,0,.31,0a15.11,15.11,0,0,1-4.12-1.24,39.9,39.9,0,0,1-4.08-2.31,23,23,0,0,0-5.23-2.57,8.81,8.81,0,0,0-5.82-.06,7.66,7.66,0,0,0-2.19,1.35,15.15,15.15,0,0,1-1.72,1.33,3.52,3.52,0,0,1-2.92.51A3,3,0,0,1,420.58,403.3Z" style="fill:#f5f5f5"></path><path d="M421.67,417s.24-.31.71-.8a6.75,6.75,0,0,1,2.4-1.52A10.71,10.71,0,0,1,429,414a43.6,43.6,0,0,1,5.22.72,18,18,0,0,0,5.34.22,14.92,14.92,0,0,0,4.21-1.2,13.8,13.8,0,0,0,2.53-1.51,3.88,3.88,0,0,0,.8-.72,27,27,0,0,1-3.47,1.91,15.52,15.52,0,0,1-4.12,1.07,18.3,18.3,0,0,1-5.21-.26,40.59,40.59,0,0,0-5.29-.68,10.72,10.72,0,0,0-4.31.76,6.32,6.32,0,0,0-2.41,1.71,3.87,3.87,0,0,0-.45.67C421.7,416.85,421.66,416.94,421.67,417Z" style="fill:#f5f5f5"></path><path d="M445.62,424.25a2.41,2.41,0,0,0-.83-.42,8.55,8.55,0,0,0-2.48-.54,16.24,16.24,0,0,0-3.76.22c-1.4.22-2.9.61-4.47.94a18.53,18.53,0,0,1-4.47.51,9.8,9.8,0,0,1-3.55-.77,8.4,8.4,0,0,1-2.69-2,2.55,2.55,0,0,0,.51.78,6.5,6.5,0,0,0,2,1.54,9.79,9.79,0,0,0,3.67.9,17.76,17.76,0,0,0,4.59-.48c1.59-.33,3.08-.73,4.45-1a17.08,17.08,0,0,1,3.66-.31A14.07,14.07,0,0,1,445.62,424.25Z" style="fill:#f5f5f5"></path><path d="M424.32,434.53a5,5,0,0,1,2.92-.29,13.67,13.67,0,0,1,3,1.14,11.7,11.7,0,0,0,11.14-.58,10.38,10.38,0,0,0,1.78-1.37c.37-.39.55-.61.53-.64a24.75,24.75,0,0,1-2.49,1.71,12.28,12.28,0,0,1-7,1.48c-2.84-.16-5-1.86-7-2.08a4.41,4.41,0,0,0-2.26.19A1.61,1.61,0,0,0,424.32,434.53Z" style="fill:#f5f5f5"></path><path d="M426,448.76a5.84,5.84,0,0,0,2.5-.5c1.5-.5,3.37-1.66,5.55-2.53a9.06,9.06,0,0,1,3.19-.66,5.86,5.86,0,0,1,2.56.58,5.55,5.55,0,0,1,1.85,1.6s0-.25-.28-.63a4,4,0,0,0-1.41-1.27,5.86,5.86,0,0,0-2.72-.73,9,9,0,0,0-3.36.66c-2.26.9-4.07,2.09-5.51,2.66S426,448.68,426,448.76Z" style="fill:#f5f5f5"></path><path d="M427.47,455.38a6.82,6.82,0,0,0,1.9.61,34.87,34.87,0,0,0,9.56.94,7.4,7.4,0,0,0,2-.23c0-.15-3,0-6.75-.39S427.5,455.23,427.47,455.38Z" style="fill:#f5f5f5"></path><polygon points="461.66 34.26 461.66 113.96 358.72 113.96 355.01 34.82 461.66 34.26" style="fill:#e0e0e0"></polygon><rect x="366.86" y="22.87" width="79.23" height="102.94" transform="translate(332.14 480.82) rotate(-90)" style="fill:#fff"></rect><path d="M458.34,114.35H354.62v-80H458.34Zm-102.94-.78H457.56V35.12H355.4Z" style="fill:#e0e0e0"></path><rect x="366.16" y="42.87" width="80.64" height="60.66" style="fill:#fff"></rect><path d="M446.8,42.87h-1.53l-4.39,0L424.34,43l-58.18.09.19-.18c0,18.19,0,38.85,0,60.65h0l-.21-.21,80.64,0-.17.17c0-18.33.07-33.48.09-44.05,0-5.29,0-9.43,0-12.26,0-1.41,0-2.49,0-3.23s0-1.12,0-1.12,0,.36,0,1.08,0,1.8,0,3.2c0,2.82,0,7,0,12.23,0,10.59.05,25.77.09,44.15v.17h-.17l-80.64,0H366v-.2h0c0-21.8,0-42.46,0-60.65v-.19h.18l58.3.09,16.5,0,4.36,0h1.48Z" style="fill:#e0e0e0"></path><path d="M355,34.54a10,10,0,0,1,1.74,1.07c1.05.7,2.48,1.7,4,2.84s2.92,2.23,3.89,3a9,9,0,0,1,1.5,1.39,11.12,11.12,0,0,1-1.68-1.16l-4-2.93-3.95-2.93A10.3,10.3,0,0,1,355,34.54Z" style="fill:#e0e0e0"></path><path d="M458,34.72A57.12,57.12,0,0,1,452.5,39a58.26,58.26,0,0,1-5.7,3.91,57.46,57.46,0,0,1,5.45-4.24A58.26,58.26,0,0,1,458,34.72Z" style="fill:#e0e0e0"></path><line x1="457.95" y1="113.96" x2="446.39" y2="103.53" style="fill:#fff"></line><path d="M446.39,103.53a75.24,75.24,0,0,1,5.92,5.06A76.21,76.21,0,0,1,458,114,73.16,73.16,0,0,1,452,108.9,73.84,73.84,0,0,1,446.39,103.53Z" style="fill:#e0e0e0"></path><path d="M355,114a71.5,71.5,0,0,1,5.38-5.13,68.16,68.16,0,0,1,5.66-4.83,71.5,71.5,0,0,1-5.38,5.13A68.16,68.16,0,0,1,355,114Z" style="fill:#e0e0e0"></path><path d="M425.93,72.65a9.73,9.73,0,1,1-7.49-11.55A9.73,9.73,0,0,1,425.93,72.65Z" style="fill:#f5f5f5"></path><path d="M413.25,79.87a16.08,16.08,0,0,1,.85-2.69,16.22,16.22,0,0,0,.89-6.55,9.11,9.11,0,0,0-2.85-5.74,16.58,16.58,0,0,0-2.31-1.49,4.09,4.09,0,0,1,2.65,1.08,8.9,8.9,0,0,1,3.26,6.07,14.26,14.26,0,0,1-1.14,6.81A7.94,7.94,0,0,1,413.25,79.87Z" style="fill:#e0e0e0"></path><path d="M425.81,69.45c0,.22-2.62-.72-5.66.19s-4.7,3.06-4.86,2.9.22-.67,1-1.46a8.64,8.64,0,0,1,3.66-2.17,8.54,8.54,0,0,1,4.25-.15C425.26,69,425.85,69.36,425.81,69.45Z" style="fill:#e0e0e0"></path><path d="M421.42,69c-.12,0-.07-.68-.42-1.64a4.37,4.37,0,0,0-6.32-2.46c-.9.46-1.32,1-1.42.92s.2-.72,1.14-1.38a4.58,4.58,0,0,1,7.11,2.77C421.76,68.28,421.5,69,421.42,69Z" style="fill:#e0e0e0"></path><path d="M418.32,70c-.22,0-.06-1.38-.45-2.94s-1.11-2.68-.93-2.82,1.25.89,1.67,2.65S418.5,70,418.32,70Z" style="fill:#e0e0e0"></path><path d="M418.23,66.93c0,.22-.85.27-1.65.69s-1.49,1-1.64.83.27-.93,1.29-1.5S418.27,66.75,418.23,66.93Z" style="fill:#e0e0e0"></path><path d="M402.66,71.49a7.39,7.39,0,1,1-10.41.9A7.39,7.39,0,0,1,402.66,71.49Z" style="fill:#f5f5f5"></path><path d="M403,82.56a12.17,12.17,0,0,1-1.5-1.53,12.25,12.25,0,0,0-4.07-2.93,6.88,6.88,0,0,0-4.86-.14,12.37,12.37,0,0,0-1.82,1c-.05,0,.41-.8,1.67-1.39a6.75,6.75,0,0,1,5.23,0,10.85,10.85,0,0,1,4.15,3.19A6.08,6.08,0,0,1,403,82.56Z" style="fill:#e0e0e0"></path><path d="M400.47,70.43a11.83,11.83,0,0,0-1.89,3.86,11.56,11.56,0,0,0,.21,4.29c-.07,0-.37-.39-.63-1.18a6.58,6.58,0,0,1,1.27-6.13C400,70.64,400.42,70.38,400.47,70.43Z" style="fill:#e0e0e0"></path><path d="M398.57,73.19c-.05.08-.48-.19-1.24-.3a3.33,3.33,0,0,0-3.91,3.35c0,.77.2,1.24.11,1.28s-.41-.39-.51-1.26a3.56,3.56,0,0,1,1.18-3.06,3.62,3.62,0,0,1,3.21-.71C398.25,72.73,398.61,73.15,398.57,73.19Z" style="fill:#e0e0e0"></path><path d="M398.15,75.64c-.11.13-.94-.45-2.12-.75s-2.19-.22-2.22-.38a2.75,2.75,0,0,1,2.36-.18C397.5,74.67,398.26,75.54,398.15,75.64Z" style="fill:#e0e0e0"></path><path d="M396.08,74.61c.15.09-.12.66-.13,1.35s.14,1.35,0,1.4-.52-.52-.54-1.41S396,74.52,396.08,74.61Z" style="fill:#e0e0e0"></path><path d="M403,69c-2.61-1.7-4.21-4.73-5.25-7.67a14.42,14.42,0,0,1-.12-9.18,12,12,0,0,1,6.28,6.71c1.09,2.95.45,7.3-.91,10.14" style="fill:#ebebeb"></path><path d="M399.94,56.92a104.75,104.75,0,0,1,2.8,11.6" style="fill:#fff"></path><path d="M402.74,68.52a8.05,8.05,0,0,1-.47-1.69c-.28-1.21-.61-2.58-1-4.1s-.71-2.89-1-4.09a7.53,7.53,0,0,1-.35-1.72,7.67,7.67,0,0,1,.63,1.64c.33,1,.74,2.46,1.13,4.07s.68,3.08.85,4.14A7.16,7.16,0,0,1,402.74,68.52Z" style="fill:#e0e0e0"></path><path d="M409.58,82.2c3.05-.64,6.32.36,9.14,1.71a14.36,14.36,0,0,1,6.57,6.41,12,12,0,0,1-9.18-.31c-2.86-1.32-5.48-4.84-6.53-7.81" style="fill:#ebebeb"></path><path d="M420.23,88.56a105.65,105.65,0,0,1-10.18-6.22" style="fill:#fff"></path><path d="M410.05,82.34a7.77,7.77,0,0,1,1.53.86l3.58,2.22,3.61,2.18a7.75,7.75,0,0,1,1.46,1,7.19,7.19,0,0,1-1.6-.71c-1-.49-2.27-1.22-3.68-2.08s-2.66-1.7-3.54-2.33A7.54,7.54,0,0,1,410.05,82.34Z" style="fill:#e0e0e0"></path><path d="M406.63,83.65a8.8,8.8,0,0,1-.49,5.53,8.62,8.62,0,0,1-3.42,4.29,7.1,7.1,0,0,1-.36-5.48,8.71,8.71,0,0,1,4.27-4.34" style="fill:#ebebeb"></path><path d="M403.46,90.36a63.27,63.27,0,0,1,3.11-6.42" style="fill:#fff"></path><path d="M406.57,83.94a21.76,21.76,0,0,1-1.46,3.25,20.83,20.83,0,0,1-1.65,3.17A13.13,13.13,0,0,1,404.74,87,12.28,12.28,0,0,1,406.57,83.94Z" style="fill:#e0e0e0"></path><rect x="92.59" y="248.24" width="110.87" height="209.58" style="fill:#e0e0e0"></rect><rect x="59.68" y="248.24" width="110.87" height="209.58" style="fill:#f5f5f5"></rect><path d="M162.39,291.38H67.23V258.16h95.16Zm-94-1.17h92.82V259.33H68.4Z" style="fill:#e0e0e0"></path><path d="M97.4,258.75h36.12a0,0,0,0,1,0,0v1.67a4.95,4.95,0,0,1-4.95,4.95H102.34a4.95,4.95,0,0,1-4.95-4.95v-1.67A0,0,0,0,1,97.4,258.75Z" style="fill:#ebebeb"></path><path d="M162.39,333.58H67.23V300.36h95.16Zm-94-1.17h92.82V301.53H68.4Z" style="fill:#e0e0e0"></path><path d="M97.4,300.95h36.12a0,0,0,0,1,0,0v1.67a4.95,4.95,0,0,1-4.95,4.95H102.34a4.95,4.95,0,0,1-4.95-4.95v-1.67A0,0,0,0,1,97.4,300.95Z" style="fill:#ebebeb"></path><path d="M162.39,375.78H67.23V342.56h95.16Zm-94-1.17h92.82V343.73H68.4Z" style="fill:#e0e0e0"></path><path d="M97.4,343.15h36.12a0,0,0,0,1,0,0v1.67a4.95,4.95,0,0,1-4.95,4.95H102.34a4.95,4.95,0,0,1-4.95-4.95v-1.67A0,0,0,0,1,97.4,343.15Z" style="fill:#ebebeb"></path><path d="M162.39,418H67.23V384.76h95.16Zm-94-1.17h92.82V385.93H68.4Z" style="fill:#e0e0e0"></path><path d="M97.4,385.35h36.12a0,0,0,0,1,0,0V387a4.95,4.95,0,0,1-4.95,4.95H102.35A4.95,4.95,0,0,1,97.4,387v-1.67A0,0,0,0,1,97.4,385.35Z" style="fill:#ebebeb"></path><rect x="54.77" y="240.4" width="120.42" height="10.44" style="fill:#ebebeb"></rect><rect x="175.19" y="240.4" width="36.21" height="10.44" style="fill:#e0e0e0"></rect><rect x="59.68" y="457.82" width="5.83" height="10.71" style="fill:#e0e0e0"></rect><rect x="95.68" y="457.82" width="5.83" height="10.71" style="fill:#e0e0e0"></rect><rect x="161.44" y="457.82" width="5.83" height="10.71" style="fill:#e0e0e0"></rect><rect x="194.32" y="457.82" width="5.83" height="10.71" style="fill:#e0e0e0"></rect><polygon points="143.38 212.71 154.59 242.15 147.62 242.12 142.03 224.02 143.38 212.71" style="fill:#e0e0e0"></polygon><polygon points="105.07 185.5 101.22 241.92 141.02 242.77 145.5 185.5 105.07 185.5" style="fill:#ebebeb"></polygon><polygon points="109.05 190.04 105.84 237 135.44 238.43 139.57 189.76 109.05 190.04" style="fill:#fafafa"></polygon><polygon points="115.55 196.68 113.15 229.69 129.47 229.69 132.35 196.68 115.55 196.68" style="fill:#e0e0e0"></polygon><rect x="58.24" y="28.15" width="83.03" height="137.44" style="fill:#e0e0e0"></rect><rect x="55.48" y="28.15" width="83.03" height="137.44" style="fill:#ebebeb"></rect><rect x="59.02" y="30.94" width="75.96" height="131.86" style="fill:#fafafa"></rect><rect x="73.48" y="48.07" width="46.71" height="97.59" style="fill:#ebebeb"></rect><path d="M73.48,111.13c-.11-9.12,8.09-18,17.12-19.29,4.3-.61,8.87.25,12.9-1.4,7.18-3,9.46-12.49,16.69-15.32l.33,70.54h-47Z" style="fill:#e0e0e0"></path><polygon points="250.72 441.25 250.72 468.91 291.18 468.91 335.8 468.91 335.8 441.25 250.72 441.25" style="fill:#f5f5f5"></polygon><polygon points="247.15 433.51 247.15 441.25 338.77 441.25 338.77 433.51 291.18 433.51 247.15 433.51" style="fill:#e0e0e0"></polygon><polygon points="292.96 468.91 335.8 468.91 335.8 441.25 338.77 441.25 338.77 433.51 291.18 433.51 291.18 440.53 292.96 468.91" style="fill:#e0e0e0"></polygon><rect x="262.62" y="445.71" width="17.25" height="4.16" style="fill:#e0e0e0"></rect><rect x="260.4" y="455.08" width="22.15" height="8.79" style="fill:#fff"></rect><polygon points="263.81 405.88 263.81 433.55 304.26 433.55 348.89 433.55 348.89 405.88 263.81 405.88" style="fill:#f5f5f5"></polygon><polygon points="260.24 398.15 260.24 405.88 351.86 405.88 351.86 398.15 304.26 398.15 260.24 398.15" style="fill:#e0e0e0"></polygon><polygon points="306.05 433.55 348.89 433.55 348.89 405.88 351.86 405.88 351.86 398.15 304.26 398.15 304.26 405.17 306.05 433.55" style="fill:#e0e0e0"></polygon><rect x="275.71" y="410.35" width="17.25" height="4.16" style="fill:#e0e0e0"></rect><rect x="273.49" y="419.72" width="22.15" height="8.79" style="fill:#fff"></rect></g><g id="freepik--Floor--inject-84"><path d="M464.88,468.53c0,.15-97.66.26-218.1.26s-218.13-.11-218.13-.26,97.64-.27,218.13-.27S464.88,468.38,464.88,468.53Z" style="fill:#263238"></path></g><g id="freepik--Screen--inject-84"><path d="M309.16,61.17l-25,0a6.21,6.21,0,0,0-6.07,6.34V72a6.19,6.19,0,0,1-6.06,6.33l-48.68,0A6.21,6.21,0,0,1,217.31,72V67.45a6.2,6.2,0,0,0-6.06-6.34H180.61A19.64,19.64,0,0,0,161,80.74l-.06,315.2a19.64,19.64,0,0,0,19.63,19.66l128.56.07A19.65,19.65,0,0,0,328.74,396l.06-315.2A19.64,19.64,0,0,0,309.16,61.17Z" style="fill:#fff"></path><path d="M309.16,61.17l.67,0a14.82,14.82,0,0,1,2,.15,18.36,18.36,0,0,1,7.37,2.55,18.81,18.81,0,0,1,4.48,3.63,19.21,19.21,0,0,1,3.74,5.87,20.29,20.29,0,0,1,1.48,8c0,2.91,0,6,0,9.27,0,26.18,0,64.06.06,110.87s0,102.55,0,164.44V395.4a21,21,0,0,1-.75,6,19.93,19.93,0,0,1-2.51,5.54,21.33,21.33,0,0,1-4.1,4.54,19.85,19.85,0,0,1-11.34,4.41c-4.12.12-8.22,0-12.35.05h-25l-51.36,0-26.27,0H182a20.7,20.7,0,0,1-12.8-3.53,20.14,20.14,0,0,1-7.79-10.76,21.75,21.75,0,0,1-.82-6.65v-6.62q0-13.23,0-26.28,0-26.1,0-51.38c0-33.68,0-66.17,0-97.12s0-60.36.05-87.89q0-20.64,0-39.83V81.05c0-.79.07-1.6.12-2.39a23.34,23.34,0,0,1,.4-2.34A20.1,20.1,0,0,1,165.38,68a20,20,0,0,1,16-7.1l17.13,0h12.27A6.26,6.26,0,0,1,214.68,62a6.54,6.54,0,0,1,2.41,3.16,10.71,10.71,0,0,1,.4,3.88V71a16.39,16.39,0,0,0,.06,1.87A6.19,6.19,0,0,0,219,76.12,5.84,5.84,0,0,0,222,78a7,7,0,0,0,1.78.17h8.9l25.91,0,11.43,0c.9,0,1.82,0,2.67,0a5.8,5.8,0,0,0,2.41-.85,6.23,6.23,0,0,0,2.75-4A11.17,11.17,0,0,0,278,71V68.66a13.58,13.58,0,0,1,.1-2.3,6.91,6.91,0,0,1,.74-2.1A6.16,6.16,0,0,1,282,61.49a9.79,9.79,0,0,1,3.91-.42l12.74,0,7.84,0,2.67,0-2.67,0-7.84,0H285.9a9.65,9.65,0,0,0-3.83.42,6,6,0,0,0-3,2.7,6.57,6.57,0,0,0-.71,2.05,12.89,12.89,0,0,0-.1,2.26c0,.77,0,1.55,0,2.35a11.2,11.2,0,0,1-.16,2.43,6.45,6.45,0,0,1-2.84,4.11,6,6,0,0,1-2.5.88c-.91.08-1.79,0-2.7,0H223.79a7.26,7.26,0,0,1-1.85-.18,6.16,6.16,0,0,1-3.18-2,6.59,6.59,0,0,1-1.55-3.46,15.55,15.55,0,0,1-.07-1.92V69.05a10.13,10.13,0,0,0-.38-3.77,6.16,6.16,0,0,0-2.28-3,5.89,5.89,0,0,0-3.67-1h-29.4a20.32,20.32,0,0,0-8.58,1.62,20,20,0,0,0-7.13,5.35,19.6,19.6,0,0,0-4,8.15c-.2.75-.26,1.53-.39,2.3s-.1,1.55-.11,2.34v4.76q0,19.17,0,39.83c0,27.53,0,56.94,0,87.89s0,63.44,0,97.12V362q0,13.05,0,26.28v6.62a21.17,21.17,0,0,0,.8,6.49,19.55,19.55,0,0,0,7.57,10.46A20.17,20.17,0,0,0,182,415.32h39.54l51.36,0h25c4.12,0,8.26.07,12.31-.05a19.33,19.33,0,0,0,11.05-4.28,21,21,0,0,0,4-4.42,19.27,19.27,0,0,0,2.44-5.39,20.64,20.64,0,0,0,.74-5.85v-6q0-11.9,0-23.5c0-61.89.06-117.62.09-164.44s.08-84.69.11-110.87c0-3.28,0-6.36,0-9.27a20.2,20.2,0,0,0-1.44-7.91,19.39,19.39,0,0,0-3.69-5.84,19.58,19.58,0,0,0-11.76-6.21,16.33,16.33,0,0,0-2-.19Z" style="fill:#263238"></path><path d="M312.93,97.23c0,.08-3.25.18-7.25.21s-7.26,0-7.26-.09,3.25-.18,7.26-.22S312.93,97.14,312.93,97.23Z" style="fill:#263238"></path><path d="M313,100.94c0,.08-3.25.18-7.25.21s-7.26,0-7.26-.09,3.25-.18,7.26-.21S313,100.86,313,100.94Z" style="fill:#263238"></path><path d="M313,104.65c0,.09-3.25.18-7.25.22s-7.26,0-7.26-.1,3.25-.18,7.26-.21S313,104.57,313,104.65Z" style="fill:#263238"></path><path d="M181,109l.3,0,.84,0,3.1-.07-.09.09q0-1,0-2.25c0-.42,0-.81,0-1.29a1.19,1.19,0,0,1,1-1c.5,0,.94,0,1.48,0a1.22,1.22,0,0,1,1,1.2c0,1,0,2.14,0,3.28l-.14-.14,3.91,0-.15.15c0-1.58,0-3.2,0-4.87,0-.42,0-.83,0-1.24a1.29,1.29,0,0,0-.54-.93L190,100.2l-1.65-1.63-.8-.78a1.83,1.83,0,0,0-.81-.61,1,1,0,0,0-.89.17c-.24.2-.49.49-.73.72l-1.4,1.41c-.89.92-1.81,1.76-2.47,2.55a2.77,2.77,0,0,0-.2,1.46v1.37c0,.85,0,1.59,0,2.22s0,1,0,1.42,0,.5,0,.51a2.56,2.56,0,0,1,0-.47c0-.38,0-.84,0-1.4s0-1.38-.05-2.23c0-.44,0-.91,0-1.41,0-.25,0-.5,0-.76a1.6,1.6,0,0,1,.22-.82c.72-.89,1.59-1.67,2.47-2.61.45-.47.92-.94,1.4-1.43.25-.25.45-.49.75-.75a1.33,1.33,0,0,1,1.13-.22,2.05,2.05,0,0,1,.94.67l.8.79,1.66,1.62,1.71,1.68a3.37,3.37,0,0,1,.44.47,1.41,1.41,0,0,1,.2.66c0,.41,0,.83,0,1.25,0,1.66,0,3.29,0,4.87v.15h-.15l-3.91,0h-.14V109c0-1.13,0-2.23,0-3.28a.94.94,0,0,0-.79-1c-.45,0-1,0-1.42,0a1,1,0,0,0-.84.76c0,.39,0,.85,0,1.25v2.33h-.08l-3.15,0h-.82A1.27,1.27,0,0,1,181,109Z" style="fill:#263238"></path><path d="M219.09,140l1.54-1.86a3.58,3.58,0,0,0,2.91,1.67c1.51,0,2.28-.9,2.28-2.7v-7.57h-5.21v-2.28h7.93V137c0,3.45-1.71,5.14-4.93,5.14A5.5,5.5,0,0,1,219.09,140Z" style="fill:#263238"></path><path d="M241.45,135.36v6.55H239v-1.36a4,4,0,0,1-3.51,1.51c-2.56,0-4.17-1.4-4.17-3.35s1.26-3.32,4.65-3.32h2.88v-.17c0-1.53-.92-2.43-2.78-2.43a5.55,5.55,0,0,0-3.39,1.11l-1-1.9a7.85,7.85,0,0,1,4.72-1.38C239.59,130.62,241.45,132.14,241.45,135.36Zm-2.62,3.06v-1.3h-2.7c-1.77,0-2.25.67-2.25,1.49s.79,1.55,2.13,1.55A2.85,2.85,0,0,0,238.83,138.42Z" style="fill:#263238"></path><path d="M255.8,135.51v6.4h-2.62v-6.06c0-2-1-2.95-2.65-2.95-1.87,0-3.12,1.13-3.12,3.36v5.65h-2.62V130.74h2.49v1.44a4.88,4.88,0,0,1,3.85-1.56C253.81,130.62,255.8,132.14,255.8,135.51Z" style="fill:#263238"></path><path d="M269.69,137.16h-8.77a3.37,3.37,0,0,0,3.62,2.68,4,4,0,0,0,3-1.21l1.4,1.61a5.65,5.65,0,0,1-4.49,1.82c-3.75,0-6.17-2.41-6.17-5.73a5.55,5.55,0,0,1,5.77-5.71,5.45,5.45,0,0,1,5.65,5.77C269.73,136.6,269.71,136.91,269.69,137.16Zm-8.79-1.73h6.34a3,3,0,0,0-3.16-2.72A3.09,3.09,0,0,0,260.9,135.43Z" style="fill:#263238"></path><path d="M232.43,152.93c0-2.11,1.11-3.37,2.65-3.37s2.65,1.26,2.65,3.37-1.12,3.37-2.65,3.37S232.43,155,232.43,152.93Zm4.6,0c0-1.77-.8-2.75-1.95-2.75s-2,1-2,2.75.79,2.75,2,2.75S237,154.7,237,152.93Z" style="fill:#263238"></path><path d="M244.34,154.5H243v1.75h-.69V154.5h-3.74V154l3.52-4.4h.75l-3.39,4.29h2.88v-1.54H243v1.54h1.32Z" style="fill:#263238"></path><path d="M245,151.73a.5.5,0,0,1,.5-.51.51.51,0,0,1,.52.51.53.53,0,0,1-.52.53A.51.51,0,0,1,245,151.73Zm0,4a.5.5,0,0,1,.5-.51.52.52,0,1,1,0,1A.51.51,0,0,1,245,155.77Z" style="fill:#263238"></path><path d="M251.53,154.29c0,1.13-.78,2-2.41,2a3.42,3.42,0,0,1-2.37-.85l.33-.54a2.88,2.88,0,0,0,2,.77c1.12,0,1.72-.55,1.72-1.36s-.53-1.38-2.22-1.38h-1.41l.34-3.33h3.63v.61h-3l-.23,2.11h.85C250.77,152.33,251.53,153.12,251.53,154.29Z" style="fill:#263238"></path><path d="M257.38,154.26a2.07,2.07,0,0,1-2.27,2c-1.76,0-2.72-1.22-2.72-3.31,0-2.26,1.23-3.43,3-3.43a3.13,3.13,0,0,1,1.58.35l-.28.55a2.37,2.37,0,0,0-1.29-.31c-1.43,0-2.35.92-2.35,2.72,0,.15,0,.34,0,.54a2.12,2.12,0,0,1,2-1.14A2,2,0,0,1,257.38,154.26Zm-.68,0c0-.87-.64-1.43-1.66-1.43a1.54,1.54,0,0,0-1.71,1.45c0,.73.61,1.42,1.75,1.42A1.45,1.45,0,0,0,256.7,154.28Z" style="fill:#263238"></path><circle cx="244.8" cy="330.23" r="22.44" style="fill:#9316EE"></circle><path d="M235,333.92l4-.94a1.1,1.1,0,0,0,.84-1.07v-.82s-.17-1.4,1.15-1.49c.95-.06,7,0,7,0s1.58,0,1.55,1.22V332a.93.93,0,0,0,.67.89l4.34,1.32a1,1,0,0,0,1.14-.54l.55-1.34a1.88,1.88,0,0,0,.14-.77,3.75,3.75,0,0,0-.75-2c-.86-1.1-4.92-3.71-12.65-3.33-7.37.35-9,3.46-9.4,4.2a3.14,3.14,0,0,0-.13,2.07c.07.18.2.47.32.77A1.1,1.1,0,0,0,235,333.92Z" style="fill:#fff"></path><circle cx="203.69" cy="210.73" r="16.6" style="fill:#455a64"></circle><path d="M203.69,214.46a3,3,0,0,1-3-3V205a3,3,0,1,1,6,0v6.52A3,3,0,0,1,203.69,214.46Zm0-11.88a2.37,2.37,0,0,0-2.36,2.37v6.52a2.37,2.37,0,0,0,4.73,0V205A2.37,2.37,0,0,0,203.69,202.58Z" style="fill:#fff"></path><path d="M203.69,216.56a5.41,5.41,0,0,1-4.2-1.66c-1.91-2.11-1.6-5.42-1.59-5.56a.32.32,0,0,1,.35-.28.31.31,0,0,1,.28.34s-.29,3.18,1.43,5.08a4.81,4.81,0,0,0,3.73,1.45,5,5,0,0,0,3.79-1.45,7.78,7.78,0,0,0,1.72-5.1.32.32,0,0,1,.31-.32.33.33,0,0,1,.32.3,8.32,8.32,0,0,1-1.9,5.56A5.63,5.63,0,0,1,203.69,216.56Z" style="fill:#fff"></path><path d="M203.69,221.15a.31.31,0,0,1-.31-.31v-4.59a.32.32,0,1,1,.63,0v4.59A.31.31,0,0,1,203.69,221.15Z" style="fill:#fff"></path><circle cx="247.28" cy="210.73" r="16.6" style="fill:#455a64"></circle><circle cx="242.75" cy="210.75" r="1.93" style="fill:#fff"></circle><circle cx="247.28" cy="210.75" r="1.93" style="fill:#fff"></circle><circle cx="251.82" cy="210.75" r="1.93" style="fill:#fff"></circle><path d="M244.68,206.15a1.94,1.94,0,1,1-1.93-1.94A1.94,1.94,0,0,1,244.68,206.15Z" style="fill:#fff"></path><path d="M249.22,206.15a1.94,1.94,0,1,1-1.94-1.94A1.94,1.94,0,0,1,249.22,206.15Z" style="fill:#fff"></path><path d="M253.75,206.15a1.93,1.93,0,1,1-1.93-1.94A1.93,1.93,0,0,1,253.75,206.15Z" style="fill:#fff"></path><circle cx="242.75" cy="215.32" r="1.93" style="fill:#fff"></circle><circle cx="247.28" cy="215.32" r="1.93" style="fill:#fff"></circle><circle cx="251.82" cy="215.32" r="1.93" style="fill:#fff"></circle><circle cx="290.88" cy="210.73" r="16.6" style="fill:#455a64"></circle><path d="M283.08,208.56v3.93a.31.31,0,0,0,.3.31h2.17a.31.31,0,0,1,.19.06l3.38,2.64a.3.3,0,0,0,.49-.23v-9.19a.3.3,0,0,0-.48-.25l-3.27,2.36a.32.32,0,0,1-.18.06h-2.3A.31.31,0,0,0,283.08,208.56Z" style="fill:#fff"></path><path d="M295.9,217.37a.38.38,0,0,1-.29-.63,8.94,8.94,0,0,0,2.67-6.48,8.78,8.78,0,0,0-2.63-5.5.38.38,0,1,1,.5-.57,9.41,9.41,0,0,1,2.89,6,9.7,9.7,0,0,1-2.86,7A.35.35,0,0,1,295.9,217.37Z" style="fill:#fff"></path><path d="M293.8,215.51a.36.36,0,0,1-.27-.12.37.37,0,0,1,0-.53,5.61,5.61,0,0,0,2-4.08,6.86,6.86,0,0,0-2-4.41.38.38,0,0,1,.52-.56,7.53,7.53,0,0,1,2.27,5,6.3,6.3,0,0,1-2.27,4.63A.35.35,0,0,1,293.8,215.51Z" style="fill:#fff"></path><path d="M292,213.6a.39.39,0,0,1-.27-.11.38.38,0,0,1,0-.54c2.34-2.32.08-4.94,0-5a.38.38,0,1,1,.57-.51s2.84,3.27,0,6.1A.38.38,0,0,1,292,213.6Z" style="fill:#fff"></path><circle cx="203.38" cy="263.79" r="16.6" transform="translate(-83.37 433.27) rotate(-82.95)" style="fill:#455a64"></circle><path d="M203.48,269.53a.5.5,0,0,1-.51-.5V258.55a.51.51,0,0,1,1,0V269A.5.5,0,0,1,203.48,269.53Z" style="fill:#fff"></path><path d="M208.46,264.3H198.3a.51.51,0,0,1,0-1h10.16a.51.51,0,1,1,0,1Z" style="fill:#fff"></path><circle cx="289.58" cy="263.79" r="16.6" transform="translate(-7.74 518.82) rotate(-82.95)" style="fill:#455a64"></circle><path d="M290.72,264a3.24,3.24,0,0,0,1.92-3,3,3,0,1,0-6.05,0,3.25,3.25,0,0,0,1.93,3c-4.65.7-4.44,5.75-4.44,5.75l11,.06S295.33,264.69,290.72,264Z" style="fill:#ebebeb"></path><circle cx="246.48" cy="263.79" r="16.6" transform="translate(-45.55 476.05) rotate(-82.95)" style="fill:#455a64"></circle><rect x="241.06" y="260.02" width="7.54" height="7.54" rx="2.09" style="fill:#ebebeb"></rect><path d="M249.28,265.13v-2.56l1.91-2a.41.41,0,0,1,.71.28v5.81a.41.41,0,0,1-.69.3Z" style="fill:#ebebeb"></path></g><g id="freepik--Character--inject-84"><path d="M417.82,436.15l11.71,20.9,14,13.86a2.45,2.45,0,0,1-.1,3.58h0a2.44,2.44,0,0,1-2.18.55c-4.93-1.16-23-5.51-23.81-7.09-.89-1.83-13.81-21.22-13.81-21.22Z" style="fill:#9316EE"></path><g style="opacity:0.6000000000000001"><path d="M443.45,474.49l-26.81-7.93.51.87a3.72,3.72,0,0,0,2,1.62c2.21.76,8.39,2.74,22.08,6a2.45,2.45,0,0,0,2.24-.59Z" style="fill:#fff"></path></g><g style="opacity:0.6000000000000001"><path d="M416.94,457.41a1.48,1.48,0,0,1,1.34,1.46,1.43,1.43,0,0,1-1.44,1.34,1.58,1.58,0,0,1-1.41-1.56,1.48,1.48,0,0,1,1.65-1.22" style="fill:#fff"></path></g><path d="M433.42,468.26a5.28,5.28,0,0,1,3-4.52c0-.06-.36-.07-.89.15a3.9,3.9,0,0,0-2.29,3.5C433.21,468,433.36,468.28,433.42,468.26Z" style="fill:#263238"></path><path d="M436.52,470.16c.15,0,.41-1,1.3-2s1.9-1.3,1.86-1.45a3.44,3.44,0,0,0-3.16,3.42Z" style="fill:#263238"></path><path d="M428.59,466.34a26.07,26.07,0,0,1,1.81-3.17,25.22,25.22,0,0,1,2.63-2.52,6.72,6.72,0,0,0-4.44,5.69Z" style="fill:#263238"></path><path d="M424.5,460.29c.13.09,1-1.06,2.44-2s2.84-1.27,2.8-1.42a4.68,4.68,0,0,0-3.09,1A4.78,4.78,0,0,0,424.5,460.29Z" style="fill:#263238"></path><path d="M420.91,454.24a12.54,12.54,0,0,1,2.48-2.14,11.49,11.49,0,0,1,3.14-.92c0-.07-.37-.19-1-.19a5.36,5.36,0,0,0-4.23,2.3C421,453.83,420.85,454.21,420.91,454.24Z" style="fill:#263238"></path><path d="M422.68,451a2.13,2.13,0,0,0-.44-.79,6.17,6.17,0,0,0-1.82-1.68,2.79,2.79,0,0,0-1.71-.54,1,1,0,0,0-.85.76,1.62,1.62,0,0,0,.23,1.12,3.46,3.46,0,0,0,4.25,1.22,4,4,0,0,0,2.33-3.83,1.45,1.45,0,0,0-.53-1,1,1,0,0,0-1.14.08,3.44,3.44,0,0,0-.94,1.5,7.06,7.06,0,0,0-.46,2.44,2.28,2.28,0,0,0,.1.9,11.67,11.67,0,0,1,.71-3.2,3.13,3.13,0,0,1,.85-1.29.53.53,0,0,1,.62-.05,1,1,0,0,1,.31.7,3.59,3.59,0,0,1-2.06,3.29,3,3,0,0,1-3.63-1,1.14,1.14,0,0,1-.18-.78.53.53,0,0,1,.46-.42,2.56,2.56,0,0,1,1.45.43A9.57,9.57,0,0,1,422.68,451Z" style="fill:#263238"></path><path d="M392.7,445.34,388,462.47s15.81,10.59,15.24,13.84l-33.54-8,6.31-27Z" style="fill:#9316EE"></path><g style="opacity:0.6000000000000001"><path d="M377.92,458.53a1.42,1.42,0,0,0-1.32,1.34,1.36,1.36,0,0,0,1.32,1.32,1.48,1.48,0,0,0,1.39-1.42,1.4,1.4,0,0,0-1.52-1.22" style="fill:#fff"></path></g><g style="opacity:0.6000000000000001"><path d="M369.65,468.28l.74-2.7,31.88,8.71s1.34,1,.92,2Z" style="fill:#fff"></path></g><path d="M388.53,462.43c0,.16-.88,0-1.81.37s-1.53.92-1.66.82.33-1,1.47-1.37S388.6,462.29,388.53,462.43Z" style="fill:#263238"></path><path d="M391.7,464.73c0,.16-.77.27-1.5.83s-1.06,1.26-1.22,1.21,0-1,.87-1.68S391.74,464.57,391.7,464.73Z" style="fill:#263238"></path><path d="M392.69,469.42c-.16,0-.19-.88.45-1.67s1.48-1,1.52-.82-.55.52-1.06,1.18S392.86,469.44,392.69,469.42Z" style="fill:#263238"></path><path d="M389.18,458.41c-.1.13-.8-.28-1.74-.44s-1.73,0-1.78-.2.78-.57,1.88-.37S389.29,458.3,389.18,458.41Z" style="fill:#263238"></path><g style="opacity:0.30000000000000004"><polygon points="391.76 448.74 390.91 451.79 374.47 447.69 375.29 444.13 391.76 448.74"></polygon></g><path d="M390.08,454.93a3.15,3.15,0,0,1-1.68-.41,7.56,7.56,0,0,1-1.63-1,8.1,8.1,0,0,1-.84-.74,2.09,2.09,0,0,1-.41-.52.74.74,0,0,1,.13-.89,1,1,0,0,1,.81-.2,2.16,2.16,0,0,1,.61.24,6.55,6.55,0,0,1,1,.61,6.1,6.1,0,0,1,1.3,1.38c.61.91.73,1.59.66,1.61s-.34-.57-1-1.36a6.68,6.68,0,0,0-1.3-1.2,7,7,0,0,0-.89-.53c-.33-.18-.63-.25-.76-.11s-.06.07,0,.19a1.38,1.38,0,0,0,.3.38,10.28,10.28,0,0,0,.77.72,9.73,9.73,0,0,0,1.47,1A14.71,14.71,0,0,1,390.08,454.93Z" style="fill:#263238"></path><path d="M389.81,455.12a2.72,2.72,0,0,1-.06-1.73,5.85,5.85,0,0,1,.67-1.79,5.67,5.67,0,0,1,.68-.91,1.4,1.4,0,0,1,1.27-.59.8.8,0,0,1,.59.63,2.13,2.13,0,0,1,0,.66,3.67,3.67,0,0,1-.27,1.13,3.89,3.89,0,0,1-1.13,1.56c-.86.72-1.59.75-1.59.69s.61-.27,1.31-1a3.84,3.84,0,0,0,.91-1.45,3.41,3.41,0,0,0,.2-1c0-.37,0-.69-.17-.68s-.52.15-.72.41a5.29,5.29,0,0,0-.64.81,6.16,6.16,0,0,0-.72,1.6C389.88,454.46,389.9,455.11,389.81,455.12Z" style="fill:#263238"></path><path d="M397.73,254.27a161.47,161.47,0,0,1,8.37,40.58c1.6,22.07-11.91,160.48-11.91,160.48l-26.44-4.77s5.91-48.78,8.92-72.61c3-23.46-8.92-105.57-8.92-105.57l28-18.11" style="fill:#263238"></path><path d="M336.55,260.51s-5.61,24,6.86,50.13c7.49,15.69,62.68,147.56,62.68,147.56l22.81-11.63L373.07,271.06Z" style="fill:#263238"></path><path d="M408.14,381.29c-.15,0-7.18-21.14-15.72-47.32s-15.33-47.45-15.19-47.49,7.18,21.13,15.71,47.32S408.28,381.24,408.14,381.29Z" style="fill:#455a64"></path><path d="M406.09,458.2c-.13.05-11.25-25.87-24.83-57.9s-24.48-58.05-24.34-58.11,11.26,25.86,24.84,57.9S406.23,458.14,406.09,458.2Z" style="fill:#455a64"></path><path d="M375.79,282.58a22.2,22.2,0,0,1-2-1.21,33.2,33.2,0,0,0-5.07-2.38l-2.91-1.08a21.74,21.74,0,0,0-2.39-.78,11,11,0,0,0-2.29-.22,3.65,3.65,0,0,1,2.37-.15,16.25,16.25,0,0,1,2.47.69c.91.3,1.9.65,2.94,1.05a25.11,25.11,0,0,1,5.08,2.55A6.64,6.64,0,0,1,375.79,282.58Z" style="fill:#455a64"></path><path d="M389.61,268.78a46.17,46.17,0,0,1-3.76,4.68,46,46,0,0,1-4,4.52,27.87,27.87,0,0,1,3.56-4.86A28.63,28.63,0,0,1,389.61,268.78Z" style="fill:#455a64"></path><path d="M347.94,269.31a4.5,4.5,0,0,1-.1,2.42,8,8,0,0,1-3.42,4.7,9.93,9.93,0,0,1-5.69,1.23,8.72,8.72,0,0,1-2.39-.3,15.18,15.18,0,0,1,2.39-.08,10.42,10.42,0,0,0,5.41-1.3,8.22,8.22,0,0,0,3.34-4.35A23.47,23.47,0,0,0,347.94,269.31Z" style="fill:#455a64"></path><path d="M399.3,265.09a8.06,8.06,0,0,1-5.25-4.51c.13-.08,1,1.22,2.46,2.45S399.37,265,399.3,265.09Z" style="fill:#455a64"></path><path d="M383.3,149.56a6.19,6.19,0,0,1,5,3.25,23.42,23.42,0,0,1,1.25,3.88,5,5,0,0,0,2.32,3.2c1.08.52,2.35.38,3.52.61a5.86,5.86,0,0,1,4.51,6.29,2,2,0,0,0,0,1.15,1.44,1.44,0,0,0,.57.55c1.59.95,3.73.8,5.15,2a5.17,5.17,0,0,1,1.57,3.25,10.52,10.52,0,0,1-1.3,6.81,6.27,6.27,0,0,1-1.85,2.11,7.74,7.74,0,0,1-3.76,1c-4.43.31-9.14-.68-12.46-3.63-4.39-3.9-11.39-18.65-12.16-24.47Z" style="fill:#263238"></path><path d="M350.62,165.34l-15.72,7.53,11.16,47.21s-6.62,19.44-8.85,30.16L335,261c22.54,15.35,45.76,13.37,64.83-6.26l-10-22.73,8.36-32.75-22.07-36.12-5.45-.28Z" style="fill:#9316EE"></path><g style="opacity:0.30000000000000004"><path d="M338.64,247.42c.46-.95,9.54-8.77,10.49-9.23,13.68-6.6,22-.38,37.28.84.4,0,0,.3.4.34,1.73.15,4.38-.79,6.1-.54l.95,3c-10.28,4.1-22.2.55-32.82,3.64-3.11.91-6.07,2.38-9.27,2.91a4.27,4.27,0,0,0-2.56,1,7.92,7.92,0,0,0-.82,1.3,5.14,5.14,0,0,1-3.57,1.87,6.28,6.28,0,0,1-4.27-.6C339.3,251.1,338,248.75,338.64,247.42Z"></path></g><path d="M336.94,243.57c-.8.23-.52,3,1.46,2.56a78.33,78.33,0,0,0,10.1-3.33l6.84-5.58L386,239.09l-4.74-14.38s-31.75,3-36.23,4.83c-3.27,1.33-5.61,2.66-7.14,4.38" style="fill:#ffbe9d"></path><path d="M337.88,233.92a9.38,9.38,0,0,0-1.16,1.66c-.44.83.79,1.94.79,1.94s-2.72.85-1.77,2,1.29,1.18,1.29,1.18-2.22,1.68-1.75,2.53,1.66.36,1.66.36" style="fill:#ffbe9d"></path><path d="M336.7,243.71c-.09-.1.69-.93,2-1.44a3.49,3.49,0,0,1,2.4-.33,14,14,0,0,1-2.21.82A13.77,13.77,0,0,1,336.7,243.71Z" style="fill:#eb996e"></path><path d="M339.68,239.52c0,.15-.61.34-1.33.66s-1.28.65-1.38.54.37-.67,1.17-1S339.66,239.38,339.68,239.52Z" style="fill:#eb996e"></path><path d="M339.43,237.27c0,.06-.13.08-.27.13a4,4,0,0,1-.64.18c-.51.08-.95,0-1-.1s.36-.33.91-.43a1.92,1.92,0,0,1,.71,0C339.37,237.07,339.48,237.21,339.43,237.27Z" style="fill:#eb996e"></path><path d="M376.15,163.11s13.37.35,18.55,10.54c2.59,5.09,9.35,22.5,11.72,29.84,1.6,5,6.92,29.94.89,32.41-7.72,3.18-21.28,3.67-21.27,3.67h0l-5-14.5a4.57,4.57,0,0,1,2.91-5.62h0l4.12.88,4.74-1.43-3.23-29.25L385.05,184Z" style="fill:#9316EE"></path><g style="opacity:0.30000000000000004"><path d="M363.51,174.75c.62,2.29,0,5.6.26,7.65a108.92,108.92,0,0,1,1,24.73,3.53,3.53,0,0,0,.07,1.34,4.09,4.09,0,0,0,.65,1.05,10.86,10.86,0,0,1,1.64,7.88,32.21,32.21,0,0,1-2.48,7.84c0-2.2.13-5.5.34-7.69,0-.44.26-.15.28-.59.11-2.64-.3-5.1-2.13-7a5.84,5.84,0,0,1-1-1.19,4,4,0,0,1-.34-1.42q-1.5-13.84-1.94-27.8a2.25,2.25,0,0,1,.33-1.51,3.84,3.84,0,0,1,1-.68c.71-.46,1.17-1.28,1.94-1.64"></path></g><path d="M334.9,172.87s-9.53,3.85-7.51,20c1,7.93,5.72,29.34,10.75,41.67,2.37,5.8,7.87,9.85,14.1,9.13,2.72-.32,5.41.15,7.24-.92,2.79-1.63,4.07-7.22,4.68-13.27.41-4.12.32-8.42.92-11.93,1-5.74-1.63-8.48-5-9.2l-13.2-2.83-.86,7Z" style="fill:#9316EE"></path><path d="M351.28,221.51s.24.28.75.67a5.2,5.2,0,0,0,2.46,1,8.14,8.14,0,0,0,3.92-.5,12.5,12.5,0,0,0,4.26-2.38,7.42,7.42,0,0,0,2.26-4.2,7.26,7.26,0,0,0-.41-3.91,10.12,10.12,0,0,0-2.07-3.07,2.61,2.61,0,0,1,.82.62,7.15,7.15,0,0,1,1.59,2.31,7.37,7.37,0,0,1,.55,4.13A7.78,7.78,0,0,1,363,220.7a12.5,12.5,0,0,1-4.46,2.45,8.3,8.3,0,0,1-4.15.41,5.06,5.06,0,0,1-2.52-1.23C351.41,221.87,351.25,221.52,351.28,221.51Z" style="fill:#263238"></path><path d="M337.37,232.52s.27.71.87,1.93a17,17,0,0,0,3.34,4.62,16.1,16.1,0,0,0,7.27,4.16,16.32,16.32,0,0,0,10.14-.57c1.71-.66,2.35-2.53,3-4.1a27.25,27.25,0,0,0,1.33-4.83,85,85,0,0,0,1-8.5c.21-2.38.38-4.33.51-5.77.06-.63.12-1.15.16-1.57a4.25,4.25,0,0,1,.09-.54,1.8,1.8,0,0,1,0,.55c0,.42,0,.94-.07,1.57-.08,1.44-.2,3.4-.33,5.78a78.73,78.73,0,0,1-.86,8.56,27.11,27.11,0,0,1-1.33,4.94,18.3,18.3,0,0,1-1.15,2.47,4.43,4.43,0,0,1-2.13,1.92,16.71,16.71,0,0,1-10.49.56,16.4,16.4,0,0,1-10.67-9.17,12.88,12.88,0,0,1-.56-1.48A1.79,1.79,0,0,1,337.37,232.52Z" style="fill:#263238"></path><path d="M342.49,222.86a14,14,0,0,1,.07-2.7c.11-1.65.3-3.94.54-6.47.13-1.26.23-2.45.38-3.56a5.69,5.69,0,0,1,1.06-2.8,3,3,0,0,1,1.71-1.08c.49-.09.75,0,.74,0s-.26,0-.69.17a3,3,0,0,0-1.46,1.11c-1,1.28-.92,3.68-1.21,6.19s-.49,4.8-.7,6.45A13.41,13.41,0,0,1,342.49,222.86Z" style="fill:#263238"></path><path d="M337.93,174.33a2.68,2.68,0,0,1,1.07.39,8,8,0,0,1,2.37,2,12.6,12.6,0,0,1,2.13,4.06c.55,1.65.92,3.5,1.35,5.42.84,3.86,1.57,7.35,2.08,9.89.25,1.27.44,2.29.57,3a5.33,5.33,0,0,1,.14,1.12,4.36,4.36,0,0,1-.34-1.08c-.19-.7-.44-1.71-.74-3-.6-2.52-1.39-6-2.23-9.86-.43-1.92-.78-3.77-1.29-5.38a12.86,12.86,0,0,0-2-4A9.29,9.29,0,0,0,337.93,174.33Z" style="fill:#263238"></path><path d="M398.25,238.2a3.22,3.22,0,0,1-.87.17l-2.48.34-8.85,1.09-.18,0-.06-.18c-.54-1.6-1.06-3.35-1.58-5.21s-1.05-3.81-1.73-5.78c-.27-.77-.55-1.53-.84-2.27l-.45-1.09a4.35,4.35,0,0,1-.39-1.17,9.24,9.24,0,0,1,0-2.35,2.72,2.72,0,0,1,1.29-1.92,4,4,0,0,1,2.09-.64,6.51,6.51,0,0,1,2,.41,10.25,10.25,0,0,0,1.73.48,6.87,6.87,0,0,0,1.63,0,13.78,13.78,0,0,0,2.79-.66,9.22,9.22,0,0,1,2.17-.42,5.89,5.89,0,0,1,1.4.09,1.78,1.78,0,0,1,.47.13,14.14,14.14,0,0,0-1.85,0,9.44,9.44,0,0,0-2.1.51,13.75,13.75,0,0,1-2.84.74,7.67,7.67,0,0,1-1.73,0,13,13,0,0,1-1.81-.47,5.85,5.85,0,0,0-1.84-.37,3.62,3.62,0,0,0-1.83.58,2.23,2.23,0,0,0-1.06,1.59,9,9,0,0,0,0,2.2,3.79,3.79,0,0,0,.36,1c.15.37.31.74.45,1.11.31.74.59,1.51.86,2.29.69,2,1.22,4,1.72,5.82s1,3.6,1.53,5.19l-.25-.15,8.87-.9,2.49-.21A5,5,0,0,1,398.25,238.2Z" style="fill:#263238"></path><path d="M399.82,220.35c0-.06.41,0,.94.31a5,5,0,0,1,1.64,1.73,6.55,6.55,0,0,1,1.09,3.12c-.16.07-.66-1.33-1.54-2.84a6.71,6.71,0,0,0-1.41-1.7C400.11,220.6,399.79,220.42,399.82,220.35Z" style="fill:#263238"></path><path d="M389.16,220.35a5.14,5.14,0,0,1-.1-1.36,30.49,30.49,0,0,1,.23-3.7c.31-3.12,1.4-7.32,1.94-12a26.92,26.92,0,0,0-1-11.93,21.48,21.48,0,0,0-2.32-4.42s.11.07.26.24a8,8,0,0,1,.64.79,14,14,0,0,1,1.77,3.26c1.22,2.92,1.74,7.36,1.2,12.12-.26,2.38-.71,4.61-1.11,6.63s-.77,3.83-1,5.37-.34,2.79-.39,3.65A8.15,8.15,0,0,1,389.16,220.35Z" style="fill:#263238"></path><g style="opacity:0.30000000000000004"><path d="M390.69,192.15c.51,1.84,1,3.69,1.55,5.53a26.34,26.34,0,0,1,1.19,6,26.79,26.79,0,0,1-.46,5.12c-.3,1.94-.59,3.88-.91,5.82s.29,3.57-.87,5.24l-2,.34c.28-8.6,3.67-19.72,1.61-28.08"></path></g><path d="M382.72,174.12a30.26,30.26,0,0,1,1.94,4.89,51.43,51.43,0,0,1,1.73,5,17.78,17.78,0,0,1-2.23-4.77A23.52,23.52,0,0,1,382.72,174.12Z" style="fill:#263238"></path><g style="opacity:0.30000000000000004"><path d="M347.57,203.93a5.8,5.8,0,0,0-3.39,1.09,11.16,11.16,0,0,0-4.54,6.24,13.09,13.09,0,0,0,.24,7.76c.26.78.78,1.66,1.59,1.64,1,0,1.37-1.22,1.52-2.17.41-2.64.81-5.28,1.22-7.92A7.54,7.54,0,0,1,345,208a2.49,2.49,0,0,1,2.2-1.35l.29-2.82"></path></g><path d="M345.62,192.68s-1,.22-2.6.73a41,41,0,0,0-6,2.49c-2.28,1.14-4.27,2.31-5.69,3.18l-1.69,1a3.34,3.34,0,0,1-.64.35,3,3,0,0,1,.57-.45c.38-.28.94-.67,1.64-1.12a57.46,57.46,0,0,1,5.67-3.28,34.86,34.86,0,0,1,6.08-2.42,16,16,0,0,1,1.94-.44A2.44,2.44,0,0,1,345.62,192.68Z" style="fill:#fafafa"></path><path d="M347,198.56a3.15,3.15,0,0,1-.69.25c-.45.15-1.1.35-1.9.63a59.88,59.88,0,0,0-6.11,2.51,49.17,49.17,0,0,0-5.76,3.23c-.71.46-1.27.86-1.65,1.14a3.25,3.25,0,0,1-.61.41s.18-.2.54-.51.9-.74,1.59-1.23a40.21,40.21,0,0,1,5.75-3.32,46.17,46.17,0,0,1,6.18-2.44c.81-.25,1.47-.43,1.94-.53A3.45,3.45,0,0,1,347,198.56Z" style="fill:#fafafa"></path><path d="M399.44,185.5a9.82,9.82,0,0,1-1.47.39,31.09,31.09,0,0,0-3.49,1.09,31.62,31.62,0,0,0-3.33,1.53,11.38,11.38,0,0,1-1.35.7,5.1,5.1,0,0,1,1.24-.9,21.5,21.5,0,0,1,3.32-1.62,20.54,20.54,0,0,1,3.56-1A5.81,5.81,0,0,1,399.44,185.5Z" style="fill:#fafafa"></path><path d="M402.59,192.78a16.81,16.81,0,0,1-1.68.09,16.94,16.94,0,0,0-3.93.81,52.8,52.8,0,0,0-5.22,2.32,7,7,0,0,1,1.41-.94,21.58,21.58,0,0,1,3.72-1.68,13.79,13.79,0,0,1,4-.73,8.44,8.44,0,0,1,1.24,0A1.34,1.34,0,0,1,402.59,192.78Z" style="fill:#fafafa"></path><path d="M379.61,115.92a9.87,9.87,0,0,1,4.95,9.31c-.23,1.41-.75,2.85-.37,4.23a10.24,10.24,0,0,0,2,3.09,9.75,9.75,0,0,1-11.08,15" style="fill:#263238"></path><path d="M383.06,133.93c7.08-19.33-13.84-27.18-24.63-23.23-10.14,3.71-14.17,9.2-15.35,16.26s-.53,14.57,2.69,21c1.59,3.15,4.25,6.28,7.78,6.42" style="fill:#263238"></path><path d="M354.74,171.94l-5-46.54h0a3.53,3.53,0,0,1,2.88-3.81l18.33-6.14c5.93-1.09,10.47,6,11.31,12,.92,6.64,1.79,14.78,1.38,19.82-.83,10.13-8.41,12-8.41,12s.59,8.83,1.1,17.1a2,2,0,0,1-2.57,2Z" style="fill:#ffbe9d"></path><path d="M380.5,134.14a1.28,1.28,0,0,1-1.12,1.39,1.21,1.21,0,0,1-1.41-1,1.26,1.26,0,0,1,1.11-1.39A1.22,1.22,0,0,1,380.5,134.14Z" style="fill:#263238"></path><path d="M367.41,135.13a1.29,1.29,0,0,1-1.12,1.4,1.23,1.23,0,0,1-1.41-1A1.28,1.28,0,0,1,366,134.1,1.22,1.22,0,0,1,367.41,135.13Z" style="fill:#263238"></path><path d="M380.57,131.34c-.14.18-1.19-.43-2.56-.28s-2.31,1-2.48.81.05-.39.45-.76a3.5,3.5,0,0,1,2-.85,3.38,3.38,0,0,1,2.07.43C380.47,131,380.64,131.25,380.57,131.34Z" style="fill:#263238"></path><path d="M367.49,132.66c-.15.18-1.18-.47-2.56-.37s-2.34.87-2.51.71.06-.38.49-.74a3.55,3.55,0,0,1,2-.77,3.36,3.36,0,0,1,2,.5C367.39,132.29,367.56,132.58,367.49,132.66Z" style="fill:#263238"></path><path d="M373,142.94a8.8,8.8,0,0,1,2.21-.57c.35-.07.68-.16.72-.41a1.8,1.8,0,0,0-.32-1l-1.24-2.6c-1.74-3.72-3-6.78-2.88-6.85s1.68,2.88,3.42,6.6l1.21,2.63a2.06,2.06,0,0,1,.28,1.37.86.86,0,0,1-.54.56,3.19,3.19,0,0,1-.59.13A8.76,8.76,0,0,1,373,142.94Z" style="fill:#263238"></path><path d="M375.22,159.22a25.6,25.6,0,0,1-13.68-2.56s3.92,6.71,13.87,5Z" style="fill:#eb996e"></path><path d="M372.69,146.32a2.48,2.48,0,0,0-2.3-.76,2.25,2.25,0,0,0-1.5,1,1.46,1.46,0,0,0,0,1.66,1.7,1.7,0,0,0,1.85.32,5.31,5.31,0,0,0,1.68-1.19,1.55,1.55,0,0,0,.37-.44.47.47,0,0,0,0-.51" style="fill:#eb996e"></path><path d="M369,144.21c.23,0,.34,1.46,1.71,2.43s2.95.68,3,.89-.33.32-1,.39a3.77,3.77,0,0,1-2.48-.66,3.23,3.23,0,0,1-1.33-2C368.79,144.59,368.93,144.2,369,144.21Z" style="fill:#263238"></path><path d="M367.67,130.61c-.1.39-1.5.31-3.1.63s-2.89.86-3.13.54c-.11-.15.1-.53.6-.93a5.52,5.52,0,0,1,4.74-.89C367.4,130.15,367.72,130.43,367.67,130.61Z" style="fill:#263238"></path><path d="M380,127.83c-.22.33-1.2.08-2.35.15s-2.09.37-2.34.06c-.11-.15,0-.48.42-.81a3.23,3.23,0,0,1,1.86-.66,3.27,3.27,0,0,1,1.91.49C379.92,127.35,380.08,127.67,380,127.83Z" style="fill:#263238"></path><path d="M352.44,138.39c-.15-.06-5.54-2-5.15,4s6.34,4.36,6.34,4.19S352.44,138.39,352.44,138.39Z" style="fill:#ffbe9d"></path><path d="M351.65,144.46s-.1.08-.27.17a1.08,1.08,0,0,1-.78.07,2.59,2.59,0,0,1-1.35-2.24,3.56,3.56,0,0,1,.19-1.52,1.2,1.2,0,0,1,.74-.85.52.52,0,0,1,.63.24c.09.17.06.29.09.3s.13-.11.06-.36a.68.68,0,0,0-.26-.36.78.78,0,0,0-.59-.11,1.46,1.46,0,0,0-1,1,3.59,3.59,0,0,0-.25,1.69,2.71,2.71,0,0,0,1.69,2.49,1.08,1.08,0,0,0,1-.22C351.65,144.6,351.67,144.47,351.65,144.46Z" style="fill:#eb996e"></path><path d="M372.7,112.28c3.47,1.47,5.36,8.19,4.24,11.78s-4.7,5.59-8.31,6.67a22.09,22.09,0,0,1-10.88.71c-.07,2.46-1.34,5.06-3.65,5.88-3.06,1.09-6.42-1.53-7.36-4.64s-.14-6.44.66-9.59" style="fill:#263238"></path><path d="M347.91,136s.16.17.49.41.82.57,1.46.93a8.66,8.66,0,0,0,2.42,1,5.07,5.07,0,0,0,3.18-.29,5,5,0,0,0,2.25-2.27,6.64,6.64,0,0,0,.67-2.51,9.38,9.38,0,0,0,0-1.74,2,2,0,0,0-.13-.63c-.07,0,.07.91-.08,2.35a6.73,6.73,0,0,1-.72,2.39,4.69,4.69,0,0,1-2.11,2.09,4.81,4.81,0,0,1-3,.29,8.9,8.9,0,0,1-2.36-.85C348.7,136.48,347.94,136,347.91,136Z" style="fill:#263238"></path><path d="M346.18,121.38s.07-.33.29-.91a6.25,6.25,0,0,1,1.43-2.13,9.19,9.19,0,0,1,3.22-2,25.28,25.28,0,0,1,4.59-1.12,38,38,0,0,0,8.32-2.27c1-.41,1.84-.79,2.39-1.06l.63-.33a1,1,0,0,0,.22-.13l-.23.09-.65.29c-.57.26-1.38.61-2.41,1a42.41,42.41,0,0,1-8.31,2.2,23.48,23.48,0,0,0-4.62,1.14,9.16,9.16,0,0,0-3.26,2.11,6.1,6.1,0,0,0-1.4,2.22,6.57,6.57,0,0,0-.18.69Z" style="fill:#455a64"></path><path d="M345,144.26s-.11-.06-.28-.2a5.22,5.22,0,0,1-.7-.74,7.57,7.57,0,0,1-1.5-3.47,9.41,9.41,0,0,1,.95-5.68,12.51,12.51,0,0,1,2-2.91,5.87,5.87,0,0,1,3.34-2l-.21.33a7.24,7.24,0,0,1,2.13-7.61,9.54,9.54,0,0,1,5-1.94c1.71-.25,3.33-.39,4.84-.75a15.16,15.16,0,0,0,7.28-3.58,10.08,10.08,0,0,0,2.83-4.67,15.9,15.9,0,0,0,.32-2,2.34,2.34,0,0,1,.05.54,7.36,7.36,0,0,1-.17,1.53,9.94,9.94,0,0,1-2.77,4.89,15.27,15.27,0,0,1-7.43,3.79c-1.54.38-3.2.53-4.87.78a9.09,9.09,0,0,0-4.72,1.83,6.75,6.75,0,0,0-2,7l.1.29-.3,0a5.53,5.53,0,0,0-3.07,1.83,12.36,12.36,0,0,0-2,2.78,9.17,9.17,0,0,0-1,5.44,7.87,7.87,0,0,0,1.32,3.42C344.61,143.93,345,144.23,345,144.26Z" style="fill:#455a64"></path><path d="M375.11,159.16s1.11,15.11,1.94,22.82c.29,2.62.64,5.35,2.16,7.51a8.51,8.51,0,0,0,11.5,1.83,9,9,0,0,0,2.22-11.58c-.79-1.3-2-2.78-1.29-4.14a5.73,5.73,0,0,1,1.15-1.31c2.07-2.22,1.43-5.83.09-8.56a3,3,0,0,0-1.42-1.63c-.75-.3-1.62,0-2.41-.21-1.7-.48-1.81-2.77-2.19-4.5-.57-2.52-2.56-5.21-5.13-5.59C381.73,153.8,379.23,157.93,375.11,159.16Z" style="fill:#263238"></path><path d="M392.78,173.36a12.25,12.25,0,0,0,.85-3.55,8.28,8.28,0,0,0-.72-3.82,8.52,8.52,0,0,0-3.09-3.57c-.71-.46-1.53-.75-2.23-1.29a2.72,2.72,0,0,1-.84-1,3.23,3.23,0,0,1-.26-1.22,9.55,9.55,0,0,0-.16-2.09,3.49,3.49,0,0,0-1-1.47c-.82-.77-1.59-1.34-2-1.85a2,2,0,0,1-.52-.86s.22.28.67.72,1.22.95,2.1,1.72a3.83,3.83,0,0,1,1.13,1.61,8.9,8.9,0,0,1,.22,2.19,2.36,2.36,0,0,0,.93,1.87c.61.47,1.43.76,2.2,1.26a8.64,8.64,0,0,1,3.25,3.82,8.32,8.32,0,0,1,.65,4,7.91,7.91,0,0,1-.7,2.66A2.78,2.78,0,0,1,392.78,173.36Z" style="fill:#455a64"></path><path d="M386.65,192.71c0-.05.47-.34,1.22-1a9.21,9.21,0,0,0,2.26-3.63,8.36,8.36,0,0,0-.29-6.18c-1-2.2-3-4-4.9-6.17a14.62,14.62,0,0,1-2.33-3.48,7.25,7.25,0,0,1-.67-3.87c.14-1.26.51-2.37.69-3.43a8,8,0,0,0,0-2.94,8.72,8.72,0,0,0-1.8-3.87c-.66-.79-1.13-1.13-1.1-1.17s.14.06.36.23a6.89,6.89,0,0,1,.89.81,8.38,8.38,0,0,1,2.09,7c-.17,1.09-.52,2.21-.64,3.4a6.93,6.93,0,0,0,.66,3.61,14.63,14.63,0,0,0,2.26,3.35c1.84,2.09,3.91,4,4.94,6.3a8.64,8.64,0,0,1,.2,6.51,8.88,8.88,0,0,1-2.47,3.66,6.76,6.76,0,0,1-1,.7A1.36,1.36,0,0,1,386.65,192.71Z" style="fill:#455a64"></path><path d="M346.69,208.24l3.84-36.72,11,4.5.89,37.43s-3.6,5.28-9.52,3A9.66,9.66,0,0,1,346.69,208.24Z" style="fill:#ffbe9d"></path><polygon points="349.81 139.3 370.14 157.7 366.22 171.17 364.72 171.59 346.98 152.91 348.31 139.72 349.81 139.3" style="fill:#263238"></polygon><polygon points="348.31 139.72 368.64 158.12 364.72 171.59 345.48 153.33 348.31 139.72" style="fill:#455a64"></polygon><path d="M361.93,177.21a8,8,0,0,0,2.14-5c0-2.78-.68-9.46-.68-9.46s3.69-7.48,3.61-8.48-.24-1-1.53-.6-5.37,7.19-5.37,7.19l-1.23-5.11s3.39-5.3,3.66-6,.72-1.35-.11-1.43-7.14,5.87-7.14,5.87l.42,5.58s-.13.45-1-.35-.57-7.45-.57-7.45,2.18-3.91,2.14-4.48.4-1.18,0-2.16-1.64.13-1.64.13l-4.21,5.36-1.4-5.39s.08-1.14-1.41-1.17l.33,17.4L351.51,175Z" style="fill:#ffbe9d"></path><path d="M362.37,213.45s0-.23,0-.66-.05-1.1-.08-1.92c-.05-1.71-.13-4.17-.22-7.3-.16-6.34-.39-15.38-.67-26.33v-.11l.09-.07a7.2,7.2,0,0,0,2-2.79,8.31,8.31,0,0,0,.46-3.61c-.09-2.55-.37-5.2-.69-7.92v-.07l0-.06c.69-1.43,1.38-2.89,2.06-4.4.34-.75.67-1.51,1-2.29.15-.38.3-.78.42-1.17l.08-.29c0-.09,0-.14,0-.24a1.91,1.91,0,0,0-.1-.52c0-.13-.53,0-.89.11a1.25,1.25,0,0,0-.49.24,3.51,3.51,0,0,0-.45.42,20.06,20.06,0,0,0-1.59,2c-1,1.42-2,2.93-2.9,4.46l-.33.54-.15-.62c-.39-1.61-.81-3.35-1.24-5.11l0-.1.06-.1,1.72-2.73c.65-1.07,1.37-2.18,1.91-3.23.11-.3.26-.61.34-.86s0-.19,0-.18a.37.37,0,0,0-.25,0,1.35,1.35,0,0,0-.3.14c-.12.07-.25.17-.37.25s-.5.35-.74.55c-1.93,1.54-3.74,3.2-5.51,4.84l.08-.21q.21,2.83.42,5.59v0l0,0a.45.45,0,0,1-.5.3,1,1,0,0,1-.36-.12,2.66,2.66,0,0,1-.5-.36,2,2,0,0,1-.52-1.14,17,17,0,0,1-.22-2.23c-.05-1.47,0-2.91,0-4.34v0l0-.05a37.68,37.68,0,0,0,2.06-4.12,1.49,1.49,0,0,0,.05-.21c0-.06,0-.22,0-.31s.08-.4.11-.57a2,2,0,0,0,0-1c-.11-.36-.22-.51-.5-.47a1.94,1.94,0,0,0-.84.46l0,0-4.22,5.35-.27.35-.11-.43c-.48-1.86-.94-3.66-1.39-5.38v-.07a.9.9,0,0,0-.37-.73,1.55,1.55,0,0,0-.84-.23l.2-.2c.11,7.08.19,12.95.26,17.4v0c.78,3.21,1.38,5.69,1.8,7.4.19.82.34,1.46.44,1.91s.13.66.13.66-.07-.21-.19-.64l-.51-1.9c-.45-1.7-1.09-4.17-1.92-7.37h0v0c-.11-4.45-.24-10.32-.4-17.39V144h.21a1.9,1.9,0,0,1,1.06.3,1.3,1.3,0,0,1,.55,1.09v-.07l1.41,5.38-.38-.08,4.2-5.37h0l0,0a2.39,2.39,0,0,1,1.08-.57.81.81,0,0,1,.71.21,1.21,1.21,0,0,1,.31.59,2.45,2.45,0,0,1,0,1.23c0,.19-.08.37-.1.54a1,1,0,0,0,0,.25,1.3,1.3,0,0,1-.08.35,36.68,36.68,0,0,1-2.08,4.22l0-.11c-.05,1.41-.07,2.84,0,4.29a14,14,0,0,0,.21,2.15,1.63,1.63,0,0,0,.36.86,2.52,2.52,0,0,0,.4.29.7.7,0,0,0,.17.06h0a.14.14,0,0,0,0,.06h0l0,0h0l-.13,0h0v.1q-.21-2.76-.43-5.59V154l.09-.09c1.77-1.65,3.57-3.31,5.53-4.88l.77-.57a4.1,4.1,0,0,1,.41-.26,1.35,1.35,0,0,1,.56-.22.84.84,0,0,1,.62.2.68.68,0,0,1,.12.71c-.11.35-.24.61-.35.9-.6,1.2-1.28,2.22-1.95,3.32l-1.73,2.74,0-.21,1.23,5.11-.48-.07c.94-1.55,1.9-3.05,2.92-4.49a21.94,21.94,0,0,1,1.65-2.09,4.53,4.53,0,0,1,.5-.47,1.83,1.83,0,0,1,.66-.32c.21-.06.42-.12.66-.17a1.36,1.36,0,0,1,.41,0,.64.64,0,0,1,.43.32,2.38,2.38,0,0,1,.15.72,2.58,2.58,0,0,1,0,.39l-.09.33c-.13.42-.28.82-.44,1.21-.31.79-.65,1.55-1,2.31-.68,1.51-1.38,3-2.08,4.4l0-.14c.31,2.73.58,5.38.67,8a8.71,8.71,0,0,1-.51,3.8,7.58,7.58,0,0,1-2.19,3l.09-.18c.2,11,.37,20,.48,26.33.05,3.14.08,5.6.1,7.31,0,.82,0,1.46,0,1.92S362.37,213.45,362.37,213.45Z" style="fill:#eb996e"></path><path d="M351.14,160.19a21.13,21.13,0,0,1-.58-4.76,21.46,21.46,0,0,1,0-4.8,22.66,22.66,0,0,1,.57,4.77A22.57,22.57,0,0,1,351.14,160.19Z" style="fill:#eb996e"></path></g><g id="freepik--Plant--inject-84"><path d="M115.89,365a54.51,54.51,0,0,1,52-14.26,94.78,94.78,0,0,1-52.6,16.43" style="fill:#9316EE"></path><path d="M133.53,302.56c-2.17-15.32,3.78-32.55,15.25-43.69.38,15.18-6,32.27-15.25,43.69" style="fill:#9316EE"></path><path d="M124.35,331.49a81.85,81.85,0,0,1,37.57-35.9,51.62,51.62,0,0,1-37.71,36.07" style="fill:#9316EE"></path><path d="M122.45,337.08c9.26.26,18.62-.07,27.57-2.44s17.51-6.91,23.47-14a92.08,92.08,0,0,0-50.9,15.54" style="fill:#9316EE"></path><path d="M127.15,318.69c-4.7-17.6-12.44-29.78-26.28-39.64a36.62,36.62,0,0,0,26.28,39.64" style="fill:#9316EE"></path><path d="M92.23,349a26.06,26.06,0,0,1,15.83-24.13c-.77,9.09-7.91,19.6-15.83,24.13" style="fill:#9316EE"></path><path d="M87.81,334.2a38.82,38.82,0,0,0-25.43-33.11c3.19,14.7,11.7,27,25.43,33.11" style="fill:#9316EE"></path><path d="M94.47,360.54c-3.26-4.67-8.59-7.57-14.1-9s-11.26-1.56-17-1.68A39.66,39.66,0,0,0,94,362.59" style="fill:#9316EE"></path><path d="M101.08,398.05a43.45,43.45,0,0,0-53,25.13c19.27-3.66,38.29-12.21,53.05-25.13" style="fill:#9316EE"></path><path d="M122.23,385c-3.2,9.47-2.59,20.9,4.53,29.06A34.76,34.76,0,0,0,122.23,385" style="fill:#9316EE"></path><path d="M134.73,379.76a35.6,35.6,0,0,0,19.66,28.88,2.19,2.19,0,0,0,1.74.29c.87-.35.94-1.54.84-2.47-1.4-12.12-10.38-23.85-22.24-26.7" style="fill:#9316EE"></path><path d="M142.89,378.53a29.21,29.21,0,0,0,42.65.22c-13.56-1.49-29.2-2.48-42.65-.22" style="fill:#9316EE"></path><path d="M144.92,270.16a1.87,1.87,0,0,1-.12.4c-.1.28-.24.66-.41,1.15-.39,1-.94,2.5-1.64,4.39s-1.57,4.24-2.54,7c-.5,1.36-1,2.81-1.57,4.35l-1.7,4.9c-2.4,6.86-5.07,15.1-7.94,24.28s-5.8,19.33-8.72,30-5.44,21-7.61,30.35-3.93,17.85-5.24,25c-.34,1.78-.66,3.49-1,5.1s-.54,3.13-.78,4.56c-.49,2.84-.91,5.29-1.19,7.31s-.55,3.54-.71,4.63c-.09.51-.15.9-.2,1.2a2.39,2.39,0,0,1-.09.41,3.35,3.35,0,0,1,0-.42c0-.29.08-.69.14-1.21.15-1.09.35-2.65.62-4.64s.64-4.48,1.1-7.33c.23-1.43.48-2.95.74-4.57s.6-3.32.93-5.11c1.26-7.16,3.05-15.65,5.13-25s4.7-19.65,7.58-30.37,5.91-20.86,8.76-30.05,5.61-17.4,8.06-24.25l1.72-4.89,1.61-4.34c1-2.71,1.87-5,2.63-6.94s1.32-3.33,1.73-4.35c.19-.48.35-.85.46-1.13Z" style="fill:#263238"></path><path d="M70.47,308.94l.23.22.65.68c.56.6,1.39,1.5,2.41,2.7a96.14,96.14,0,0,1,8,10.64A71.38,71.38,0,0,1,90.09,341c2.23,7.11,3.62,15.19,5,23.63,2.76,16.9,6.14,32,8.59,43l2.93,13c.34,1.51.6,2.69.78,3.53.08.38.15.69.2.92a1.11,1.11,0,0,1,0,.32,1.61,1.61,0,0,1-.1-.3c-.06-.24-.14-.54-.24-.91l-.87-3.51c-.74-3.09-1.8-7.49-3.1-12.93-2.54-10.93-6-26.07-8.74-43-1.38-8.44-2.75-16.49-5-23.57a72.39,72.39,0,0,0-8.2-17.8,100.73,100.73,0,0,0-7.83-10.7c-1-1.21-1.79-2.14-2.33-2.76l-.61-.72A1.67,1.67,0,0,1,70.47,308.94Z" style="fill:#263238"></path><path d="M146.94,378a1.45,1.45,0,0,1-.48.09l-1.41.16-1,.1-1.2.18c-.86.12-1.84.25-2.91.49l-1.68.33-1.81.46c-1.25.28-2.55.74-3.93,1.16a57,57,0,0,0-8.58,3.78,48.71,48.71,0,0,0-7.7,5.35,36.57,36.57,0,0,0-3,2.83,33.49,33.49,0,0,0-2.34,2.7,29,29,0,0,0-1.73,2.38,17.61,17.61,0,0,0-1.18,1.89l-.72,1.21a2,2,0,0,1-.28.41,1.56,1.56,0,0,1,.19-.46l.63-1.26A18.11,18.11,0,0,1,109,397.8a27.18,27.18,0,0,1,1.68-2.45,31.5,31.5,0,0,1,2.32-2.76,37,37,0,0,1,3-2.9,45.84,45.84,0,0,1,7.76-5.44,54.6,54.6,0,0,1,8.68-3.78c1.4-.41,2.71-.86,4-1.13l1.82-.43,1.7-.3c1.08-.22,2.08-.32,2.94-.42l1.21-.14,1-.05,1.41-.06A2.3,2.3,0,0,1,146.94,378Z" style="fill:#263238"></path><path d="M150.8,309.26a6,6,0,0,1-1,.94L147,312.62c-2.37,2-5.67,4.8-9.33,7.84s-7,5.76-9.43,7.72l-2.9,2.29a8.44,8.44,0,0,1-1.1.79,5.61,5.61,0,0,1,1-.95l2.79-2.42c2.37-2,5.66-4.79,9.33-7.83s7-5.76,9.42-7.72l2.9-2.29A8.44,8.44,0,0,1,150.8,309.26Z" style="fill:#263238"></path><path d="M154.14,327.19c0,.14-7.08,2.36-15.9,5s-16,4.61-16,4.47,7.07-2.36,15.9-5S154.1,327.06,154.14,327.19Z" style="fill:#263238"></path><path d="M127.86,320.06a6.76,6.76,0,0,1-.74-1l-1.87-2.86c-1.6-2.4-3.86-5.69-6.53-9.19s-5.25-6.54-7.14-8.71c-.9-1-1.65-1.89-2.26-2.57a5.08,5.08,0,0,1-.78-1,7,7,0,0,1,.93.85c.58.56,1.39,1.4,2.38,2.46,2,2.12,4.6,5.14,7.29,8.65a112.82,112.82,0,0,1,6.41,9.31c.76,1.23,1.36,2.24,1.74,2.95A5.64,5.64,0,0,1,127.86,320.06Z" style="fill:#263238"></path><path d="M103.14,330a25,25,0,0,1-1.67,2.74c-1.07,1.67-2.51,4-4,6.62s-2.76,5.06-3.65,6.83A21.82,21.82,0,0,1,92.31,349a17.83,17.83,0,0,1,1.18-3c.81-1.82,2-4.28,3.53-6.92s3-4.95,4.14-6.57A16.31,16.31,0,0,1,103.14,330Z" style="fill:#263238"></path><path d="M94.68,361c0,.07-1.39-.6-3.62-1.6s-5.32-2.3-8.83-3.53-6.75-2.14-9.11-2.75-3.83-.93-3.82-1a4.87,4.87,0,0,1,1.06.11c.68.1,1.65.29,2.85.55a76.6,76.6,0,0,1,9.19,2.61,77.79,77.79,0,0,1,8.82,3.69c1.1.55,2,1,2.56,1.35A3.54,3.54,0,0,1,94.68,361Z" style="fill:#263238"></path><path d="M101.34,398.11a1.53,1.53,0,0,1-.44.15l-1.28.32-4.73,1.1a152.4,152.4,0,0,0-15.47,4.08A68.76,68.76,0,0,0,65,410.53c-1.72,1.1-3.07,2.07-4,2.77a13.59,13.59,0,0,1-1.44,1.06,1.83,1.83,0,0,1,.32-.34c.22-.2.54-.51,1-.88a40.82,40.82,0,0,1,3.9-2.91,63,63,0,0,1,14.46-7,129.51,129.51,0,0,1,15.55-3.95l4.77-.93A11.29,11.29,0,0,1,101.34,398.11Z" style="fill:#263238"></path><path d="M125.41,407.25c-.14,0-1-5-1.89-11.15s-1.52-11.2-1.38-11.23,1,5,1.89,11.16S125.56,407.23,125.41,407.25Z" style="fill:#263238"></path><path d="M150.48,398.15a28.1,28.1,0,0,1-2.26-2.68c-1.35-1.69-3.23-4-5.35-6.54s-4.09-4.77-5.52-6.4a22.79,22.79,0,0,1-2.25-2.69,3.93,3.93,0,0,1,.72.62c.43.42,1.05,1,1.8,1.82,1.5,1.57,3.52,3.78,5.65,6.32s4,4.9,5.24,6.64c.64.88,1.15,1.59,1.49,2.1A3.11,3.11,0,0,1,150.48,398.15Z" style="fill:#263238"></path><polygon points="84.15 421.4 84.15 433.78 87.24 433.78 98.25 468.53 122.67 468.53 133.33 434.13 137.46 433.78 137.46 421.4 84.15 421.4" style="fill:#455a64"></polygon><path d="M135.4,434.13c0,.14-10.78.25-24.08.25s-24.08-.11-24.08-.25,10.78-.26,24.08-.26S135.4,434,135.4,434.13Z" style="fill:#263238"></path><path d="M153,354.46a10.72,10.72,0,0,1-1.56.42l-4.29,1c-3.61.9-8.57,2.26-13.95,4.06s-10.15,3.73-13.57,5.2l-4,1.77a8.43,8.43,0,0,1-1.51.6,10.64,10.64,0,0,1,1.42-.79c.92-.48,2.28-1.14,4-1.92A142.76,142.76,0,0,1,133,359.48a140.36,140.36,0,0,1,14-3.92c1.82-.41,3.3-.7,4.33-.88A8.56,8.56,0,0,1,153,354.46Z" style="fill:#263238"></path><path d="M127.29,453.42c0,.14-7.56.26-16.89.26s-16.89-.12-16.89-.26,7.56-.26,16.89-.26S127.29,453.28,127.29,453.42Z" style="fill:#fafafa"></path><path d="M128.24,450.55c0,.14-8,.26-17.9.26s-17.9-.12-17.9-.26,8-.26,17.9-.26S128.24,450.41,128.24,450.55Z" style="fill:#fafafa"></path></g><g id="freepik--speech-bubble--inject-84"><path d="M397,140.49l6.16-10.84a29,29,0,1,1,7,7.74h0Z" style="fill:#fff"></path><path d="M397,140.49l13.1-3.22-.08.21h0a.15.15,0,0,1,0-.19.17.17,0,0,1,.17,0A28.79,28.79,0,0,0,424.05,143a26.21,26.21,0,0,0,4.55.21c.78,0,1.58-.07,2.38-.14l2.42-.38a29,29,0,0,0,17.87-11.53,28.5,28.5,0,0,0,4.81-11.06,29.09,29.09,0,0,0-.35-12.71,28.14,28.14,0,0,0-6.12-11.75,28.94,28.94,0,0,0-11-7.87,29.26,29.26,0,0,0-12.82-2A28.29,28.29,0,0,0,414,89.27,29.21,29.21,0,0,0,400.37,106a31.05,31.05,0,0,0-1.28,9.33,28.91,28.91,0,0,0,4.2,14.29.12.12,0,0,1,0,.13L397,140.49c.43-.77,2.24-4.05,6.05-10.91v.13a29,29,0,0,1-4.36-14.41,31.59,31.59,0,0,1,1.26-9.46,29.73,29.73,0,0,1,4.95-9.43,29.4,29.4,0,0,1,8.85-7.56,28.69,28.69,0,0,1,12-3.55,29.69,29.69,0,0,1,13,2,29.14,29.14,0,0,1,11.21,8,28.67,28.67,0,0,1,6.24,12,29.67,29.67,0,0,1,.34,12.94,28.83,28.83,0,0,1-4.92,11.24,29.31,29.31,0,0,1-18.18,11.66l-2.46.37c-.81.07-1.62.09-2.41.13a25.7,25.7,0,0,1-4.6-.23,29,29,0,0,1-13.95-5.9l.19-.18h0a.14.14,0,0,1,0,.18l-.05,0Z" style="fill:#263238"></path><path d="M420.11,113.87a2.51,2.51,0,1,1-2.51-2.51A2.51,2.51,0,0,1,420.11,113.87Z" style="fill:#263238"></path><path d="M430.14,113.87a2.51,2.51,0,1,1-2.51-2.51A2.5,2.5,0,0,1,430.14,113.87Z" style="fill:#263238"></path><path d="M440.15,112.61a2.51,2.51,0,1,1-3.43-.91A2.51,2.51,0,0,1,440.15,112.61Z" style="fill:#263238"></path></g></svg>